<?xml version="1.0" encoding="UTF-8" standalone="no"?>
<svg
   xmlnsDc="http://purl.org/dc/elements/1.1/"
   xmlnsCc="http://creativecommons.org/ns#"
   xmlnsRdf="http://www.w3.org/1999/02/22-rdf-syntax-ns#"
   xmlnsSvg="http://www.w3.org/2000/svg"
   xmlns="http://www.w3.org/2000/svg"
   xmlnsXlink="http://www.w3.org/1999/xlink"
   id="svg8"
   version="1.1"
   viewBox="0 0 272.59062 214.71403"
   height="760.79779"
   width="965.87231">
  <defs
     id="defs2">
    <linearGradient
       id="linearGradient4564">
      <stop
         id="stop4560"
         offset="0"
         style="stop-color:#ffffff;stop-opacity:1;" />
      <stop
         id="stop4562"
         offset="1"
         style="stop-color:#ffffff;stop-opacity:0;" />
    </linearGradient>
    <linearGradient
       gradientTransform="translate(-0.02362351,-0.04724702)"
       gradientUnits="userSpaceOnUse"
       y2="237.00101"
       x2="120.38944"
       y1="239.26257"
       x1="124.30853"
       id="linearGradient4566"
       xlinkHref="#linearGradient4564" />
    <filter
       height="1.1848851"
       y="-0.092442624"
       width="1.959076"
       x="-0.47953805"
       id="filter5210"
       style="color-interpolation-filters:sRGB">
      <feGaussianBlur
         id="feGaussianBlur5212"
         stdDeviation="0.79033768" />
    </filter>
    <filter
       height="1.1828897"
       y="-0.091444835"
       width="1.8297594"
       x="-0.41487968"
       id="filter5214"
       style="color-interpolation-filters:sRGB">
      <feGaussianBlur
         id="feGaussianBlur5216"
         stdDeviation="0.79033768" />
    </filter>
    <filter
       height="1.2165248"
       y="-0.10826241"
       width="1.3993453"
       x="-0.19967262"
       id="filter5240"
       style="color-interpolation-filters:sRGB">
      <feGaussianBlur
         id="feGaussianBlur5242"
         stdDeviation="1.1771985" />
    </filter>
    <filter
       height="1.4744684"
       y="-0.23723415"
       width="1.5057287"
       x="-0.25286433"
       id="filter5298"
       style="color-interpolation-filters:sRGB">
      <feGaussianBlur
         id="feGaussianBlur5300"
         stdDeviation="0.72252523" />
    </filter>
    <filter
       height="1.9706393"
       y="-0.48531967"
       width="1.2544485"
       x="-0.12722424"
       id="filter5397"
       style="color-interpolation-filters:sRGB">
      <feGaussianBlur
         id="feGaussianBlur5399"
         stdDeviation="1.5406361" />
    </filter>
  </defs>
  <metadata
     id="metadata5">
    <rdfRDF>
      <ccWork
         rdfAbout="">
        <dcFormat>image/svg+xml</dcFormat>
        <dcType
           rdfResource="http://purl.org/dc/dcmitype/StillImage" />
        <dcTitle></dcTitle>
      </ccWork>
    </rdfRDF>
  </metadata>
  <g
     transform="translate(-151.08153,-338.99469)"
     id="layer1">
    <g
       transform="translate(-7.115221e-8,0.51726913)"
       id="g4632">
      <path
         transform="matrix(7.2579014,0,0,6.4508346,-232.90962,-1345.444)"
         id="path5384"
         d="m 84.638735,281.58343 c -3.497203,-0.5226 -7.037441,-0.32297 -10.554374,-0.15859 -2.039356,0.69256 -4.062172,-0.44175 -6.109575,-0.23868 -2.236946,0.0409 -4.553694,-0.0987 -6.733969,0.47298 -1.578565,0.63149 -3.617618,1.55003 -4.496108,2.31208 -1.17813,2.59303 2.681677,3.75018 4.613166,4.02669 2.303854,-0.33605 4.338952,0.72292 6.610827,0.75977 2.249704,0.17679 4.439759,-0.75739 6.702971,-0.42173 1.972043,-0.41292 3.987152,-0.002 5.956808,-0.27609 1.470945,-1.5518 5.440111,-1.34473 4.911845,-4.18291 0.01129,-0.8587 -0.394923,-1.62846 -0.901591,-2.29352 z"
         style="opacity:0.30700001;fill:#513d50;fill-opacity:1;fill-rule:evenodd;stroke:none;stroke-width:0.28222224px;stroke-linecap:butt;stroke-linejoin:miter;stroke-opacity:1;filter:url(#filter5397)" />
      <g
         transform="matrix(2.0775818,0,0,1.87301,607.33473,0.73579931)"
         id="g5306">
        <path
           style="opacity:0.77300002;fill:#cbe2e4;fill-opacity:1;fill-rule:evenodd;stroke:#000000;stroke-width:0.61515868;stroke-linecap:butt;stroke-linejoin:miter;stroke-miterlimit:4;stroke-dasharray:none;stroke-opacity:1"
           d="m -131.44865,228.183 -2.70591,0.50736 c 0,0 -1.38499,0.49223 -1.86032,1.01472 -0.57782,0.63515 -1.01472,2.36768 -1.01472,2.36768 l 2.19856,25.53708 c 0,0 0.87797,1.68546 1.52207,2.36767 0.52638,0.55753 1.86032,1.35296 1.86032,1.35296 l 8.28687,0.33824 4.56623,-0.16912 c 0,0 1.37933,-0.49743 1.86031,-1.01472 0.46383,-0.49885 0.8456,-1.86032 0.8456,-1.86032 l 2.36768,-25.87531 c 0,0 0.0223,-2.18154 -0.67648,-2.87504 -0.90274,-0.89589 -3.72063,-0.8456 -3.72063,-0.8456 z"
           id="path5092" />
        <path
           style="fill:#09e3e4;fill-opacity:1;fill-rule:evenodd;stroke:#000000;stroke-width:0.28222224px;stroke-linecap:butt;stroke-linejoin:miter;stroke-opacity:1"
           d="m -130.77217,228.52125 -3.88975,2.02943 0.16912,12.8531 1.01471,12.8531 1.6912,1.6912 7.77951,0.33823 6.08831,-0.67647 0.67648,-1.6912 0.50735,-10.48542 2.02944,-9.63983 -0.50736,-5.07359 -5.07359,-1.52208 z"
           id="path5096" />
        <path
           style="fill:#91a19c;fill-opacity:1;fill-rule:evenodd;stroke:#000000;stroke-width:0.61515868;stroke-linecap:butt;stroke-linejoin:miter;stroke-miterlimit:4;stroke-dasharray:none;stroke-opacity:1"
           d="m -130.77217,205.52096 -0.67648,23.50765 c 0,0 8.68148,1.80394 12.51486,0.16911 l -1.52208,-23.84588 c -3.82373,-2.73883 -6.90238,-2.46012 -10.3163,0.16912 z"
           id="path5094" />
        <path
           style="opacity:0.81199999;fill:#7d8c87;fill-opacity:1;stroke:none;stroke-width:0.20000002;stroke-linecap:round;stroke-linejoin:round;stroke-miterlimit:4;stroke-dasharray:none;stroke-opacity:1;filter:url(#filter5214)"
           d="m -127.26119,205.91051 c 1.35967,6.63502 2.7805,13.90011 -0.16913,20.32686 -3.20248,1.97397 -0.49817,-3.64091 -1.84917,-5.11663 -0.3651,-2.80913 -2.62303,-8.25965 1.22447,-9.19944 0.98535,2.65986 -0.14546,6.54396 1.38371,9.54802 1.19886,1.70405 -0.91604,6.22312 -2.52092,4.80014 2.24382,-5.97196 1.01224,-12.46467 -0.0794,-18.54794 0.14624,-0.99117 1.09789,-1.62439 2.01042,-1.81101 z"
           id="path5098" />
        <path
           style="opacity:0.81199999;fill:#a8adab;fill-opacity:1;stroke:none;stroke-width:0.70866144;stroke-linecap:round;stroke-linejoin:round;stroke-miterlimit:4;stroke-dasharray:none;stroke-opacity:1;filter:url(#filter5210)"
           d="m -122.67365,206.19117 c 1.50048,2.10875 1.99585,4.76258 1.84689,7.30407 0.35399,1.89089 -1.01791,3.62939 -0.41557,5.4558 0.0542,2.11297 0.26018,4.20333 0.57132,6.2849 -0.12571,1.28847 -3.04125,2.42811 -2.33892,0.24828 -0.19166,-1.70419 -0.41798,-3.40645 -0.39754,-5.10957 -0.86536,-1.75107 0.43887,-3.3434 0.34257,-5.10543 -0.0415,-2.272 0.11587,-4.67051 -1.10657,-6.70563 -1.3394,-1.48643 0.61908,-1.64715 1.49782,-2.37242 z"
           id="path5108" />
        <path
           style="opacity:0.81199999;fill:#02c0c4;fill-opacity:1;stroke:none;stroke-width:0.70866144;stroke-linecap:round;stroke-linejoin:round;stroke-miterlimit:4;stroke-dasharray:none;stroke-opacity:1;filter:url(#filter5240)"
           d="m -132.04601,231.4044 c 0.13714,2.13631 -0.70629,4.20517 -0.39873,6.31916 0.48686,1.92756 1.45052,3.79568 1.16651,5.84199 -0.0663,1.94676 -0.52035,3.85512 -0.42969,5.81302 -0.19946,1.60611 -0.42147,3.26729 0.26508,4.80432 0.0721,1.81775 1.86721,2.67583 3.48336,2.14769 2.51087,-0.102 5.02826,-0.15878 7.53737,-0.19031 -0.64989,1.59691 -3.32189,0.96849 -4.88591,1.17744 -1.84888,0.0592 -3.69563,0.0874 -5.5397,0.20118 -1.71474,0.0875 -2.12641,-1.87922 -2.49331,-3.16745 -0.71116,-2.06202 0.20541,-4.22071 -0.019,-6.33483 0.32714,-2.55839 0.80279,-5.26712 -0.26067,-7.72674 -0.55083,-1.41584 -0.8954,-2.94014 -0.39401,-4.42874 0.38399,-1.68996 -0.36739,-4.05675 1.96872,-4.45673 l 0,0 z"
           id="path5218" />
        <path
           style="opacity:0.89600004;fill:#78e2eb;fill-opacity:1;stroke:none;stroke-width:0.70866144;stroke-linecap:round;stroke-linejoin:round;stroke-miterlimit:4;stroke-dasharray:none;stroke-opacity:1;filter:url(#filter5298)"
           d="m -120.44993,230.27613 c 1.19792,0.24861 2.41662,0.38609 3.62848,0.53069 0.63615,0.0246 1.10538,0.3882 1.39177,0.92296 0.53417,0.43258 0.15757,1.01479 -0.0591,1.49353 -0.17947,0.61301 -0.56679,1.16599 -0.55944,1.82712 -0.0297,0.52091 0.0344,1.04273 -0.004,1.56217 -0.0386,0.22674 -0.33105,0.24056 -0.49415,0.36224 -0.39957,0.20359 -0.79915,0.40717 -1.19872,0.61076 0.0289,-0.75801 -0.0891,-1.52614 0.0583,-2.27459 0.13719,-0.58552 0.45586,-1.10203 0.61192,-1.68307 0.45782,-0.4665 0.0486,-0.93608 -0.30305,-1.29412 -0.29551,-0.49458 -0.97643,-0.34915 -1.4557,-0.49328 -1.05769,-0.12753 -2.10707,-0.31336 -3.1612,-0.4659 0.5149,-0.3661 1.02941,-0.73278 1.54456,-1.09851 z"
           id="path5244" />
      </g>
      <g
         id="g5315"
         transform="matrix(2.0775818,0,0,1.87301,550.15263,-1.547409)">
        <path
           id="path5317"
           d="m -131.44865,228.183 -2.70591,0.50736 c 0,0 -1.38499,0.49223 -1.86032,1.01472 -0.57782,0.63515 -1.01472,2.36768 -1.01472,2.36768 l 2.19856,25.53708 c 0,0 0.87797,1.68546 1.52207,2.36767 0.52638,0.55753 1.86032,1.35296 1.86032,1.35296 l 8.28687,0.33824 4.56623,-0.16912 c 0,0 1.37933,-0.49743 1.86031,-1.01472 0.46383,-0.49885 0.8456,-1.86032 0.8456,-1.86032 l 2.36768,-25.87531 c 0,0 0.0223,-2.18154 -0.67648,-2.87504 -0.90274,-0.89589 -3.72063,-0.8456 -3.72063,-0.8456 z"
           style="opacity:0.77300002;fill:#cbe2e4;fill-opacity:1;fill-rule:evenodd;stroke:#000000;stroke-width:0.61515868;stroke-linecap:butt;stroke-linejoin:miter;stroke-miterlimit:4;stroke-dasharray:none;stroke-opacity:1" />
        <path
           id="path5319"
           d="m -130.77217,228.52125 -3.88975,2.02943 0.16912,12.8531 1.01471,12.8531 1.6912,1.6912 7.77951,0.33823 6.08831,-0.67647 0.67648,-1.6912 0.50735,-10.48542 2.02944,-9.63983 -0.50736,-5.07359 -5.07359,-1.52208 z"
           style="fill:#d509e4;fill-opacity:1;fill-rule:evenodd;stroke:#000000;stroke-width:0.28222224px;stroke-linecap:butt;stroke-linejoin:miter;stroke-opacity:1" />
        <path
           id="path5321"
           d="m -130.77217,205.52096 -0.67648,23.50765 c 0,0 8.68148,1.80394 12.51486,0.16911 l -1.52208,-23.84588 c -3.82373,-2.73883 -6.90238,-2.46012 -10.3163,0.16912 z"
           style="fill:#91a19c;fill-opacity:1;fill-rule:evenodd;stroke:#000000;stroke-width:0.61515868;stroke-linecap:butt;stroke-linejoin:miter;stroke-miterlimit:4;stroke-dasharray:none;stroke-opacity:1" />
        <path
           id="path5323"
           d="m -127.26119,205.91051 c 1.35967,6.63502 2.7805,13.90011 -0.16913,20.32686 -3.20248,1.97397 -0.49817,-3.64091 -1.84917,-5.11663 -0.3651,-2.80913 -2.62303,-8.25965 1.22447,-9.19944 0.98535,2.65986 -0.14546,6.54396 1.38371,9.54802 1.19886,1.70405 -0.91604,6.22312 -2.52092,4.80014 2.24382,-5.97196 1.01224,-12.46467 -0.0794,-18.54794 0.14624,-0.99117 1.09789,-1.62439 2.01042,-1.81101 z"
           style="opacity:0.81199999;fill:#7d8c87;fill-opacity:1;stroke:none;stroke-width:0.20000002;stroke-linecap:round;stroke-linejoin:round;stroke-miterlimit:4;stroke-dasharray:none;stroke-opacity:1;filter:url(#filter5214)" />
        <path
           id="path5325"
           d="m -122.67365,206.19117 c 1.50048,2.10875 1.99585,4.76258 1.84689,7.30407 0.35399,1.89089 -1.01791,3.62939 -0.41557,5.4558 0.0542,2.11297 0.26018,4.20333 0.57132,6.2849 -0.12571,1.28847 -3.04125,2.42811 -2.33892,0.24828 -0.19166,-1.70419 -0.41798,-3.40645 -0.39754,-5.10957 -0.86536,-1.75107 0.43887,-3.3434 0.34257,-5.10543 -0.0415,-2.272 0.11587,-4.67051 -1.10657,-6.70563 -1.3394,-1.48643 0.61908,-1.64715 1.49782,-2.37242 z"
           style="opacity:0.81199999;fill:#a8adab;fill-opacity:1;stroke:none;stroke-width:0.70866144;stroke-linecap:round;stroke-linejoin:round;stroke-miterlimit:4;stroke-dasharray:none;stroke-opacity:1;filter:url(#filter5210)" />
        <path
           id="path5327"
           d="m -132.04601,231.4044 c 0.13714,2.13631 -0.70629,4.20517 -0.39873,6.31916 0.48686,1.92756 1.45052,3.79568 1.16651,5.84199 -0.0663,1.94676 -0.52035,3.85512 -0.42969,5.81302 -0.19946,1.60611 -0.42147,3.26729 0.26508,4.80432 0.0721,1.81775 1.86721,2.67583 3.48336,2.14769 2.51087,-0.102 5.02826,-0.15878 7.53737,-0.19031 -0.64989,1.59691 -3.32189,0.96849 -4.88591,1.17744 -1.84888,0.0592 -3.69563,0.0874 -5.5397,0.20118 -1.71474,0.0875 -2.12641,-1.87922 -2.49331,-3.16745 -0.71116,-2.06202 0.20541,-4.22071 -0.019,-6.33483 0.32714,-2.55839 0.80279,-5.26712 -0.26067,-7.72674 -0.55083,-1.41584 -0.8954,-2.94014 -0.39401,-4.42874 0.38399,-1.68996 -0.36739,-4.05675 1.96872,-4.45673 l 0,0 z"
           style="opacity:0.81199999;fill:#c402bc;fill-opacity:1;stroke:none;stroke-width:0.70866144;stroke-linecap:round;stroke-linejoin:round;stroke-miterlimit:4;stroke-dasharray:none;stroke-opacity:1;filter:url(#filter5240)" />
        <path
           id="path5329"
           d="m -120.44993,230.27613 c 1.19792,0.24861 2.41662,0.38609 3.62848,0.53069 0.63615,0.0246 1.10538,0.3882 1.39177,0.92296 0.53417,0.43258 0.15757,1.01479 -0.0591,1.49353 -0.17947,0.61301 -0.56679,1.16599 -0.55944,1.82712 -0.0297,0.52091 0.0344,1.04273 -0.004,1.56217 -0.0386,0.22674 -0.33105,0.24056 -0.49415,0.36224 -0.39957,0.20359 -0.79915,0.40717 -1.19872,0.61076 0.0289,-0.75801 -0.0891,-1.52614 0.0583,-2.27459 0.13719,-0.58552 0.45586,-1.10203 0.61192,-1.68307 0.45782,-0.4665 0.0486,-0.93608 -0.30305,-1.29412 -0.29551,-0.49458 -0.97643,-0.34915 -1.4557,-0.49328 -1.05769,-0.12753 -2.10707,-0.31336 -3.1612,-0.4659 0.5149,-0.3661 1.02941,-0.73278 1.54456,-1.09851 z"
           style="opacity:0.89600004;fill:#be4ce4;fill-opacity:1;stroke:none;stroke-width:0.70866144;stroke-linecap:round;stroke-linejoin:round;stroke-miterlimit:4;stroke-dasharray:none;stroke-opacity:1;filter:url(#filter5298)" />
      </g>
      <g
         transform="matrix(2.0775819,0,0,1.87301,491.09566,-0.78628614)"
         id="g5331">
        <g
           id="g5442">
          <path
             transform="matrix(1.2837247,0,0,1.4254865,-357.14654,-301.36213)"
             style="fill:#e40909;fill-opacity:1;fill-rule:evenodd;stroke:#000000;stroke-width:0.44980389;stroke-linecap:round;stroke-linejoin:round;stroke-miterlimit:4;stroke-dasharray:none;stroke-opacity:1"
             d="m 177.38927,372.113 0.30821,-4.5826 6.16412,0.24996 -0.41093,5.08252 -6.16415,-0.16664 z"
             id="path5382" />
          <path
             id="path5333"
             d="m -131.44865,228.183 -2.70591,0.50736 c 0,0 -1.38499,0.49223 -1.86032,1.01472 -0.57782,0.63515 -1.01472,2.36768 -1.01472,2.36768 l 2.19856,25.53708 c 0,0 0.87797,1.68546 1.52207,2.36767 0.52638,0.55753 1.86032,1.35296 1.86032,1.35296 l 8.28687,0.33824 4.56623,-0.16912 c 0,0 1.37933,-0.49743 1.86031,-1.01472 0.46383,-0.49885 0.8456,-1.86032 0.8456,-1.86032 l 2.36768,-25.87531 c 0,0 0.0223,-2.18154 -0.67648,-2.87504 -0.90274,-0.89589 -3.72063,-0.8456 -3.72063,-0.8456 z"
             style="opacity:0.77300002;fill:#cbe2e4;fill-opacity:1;fill-rule:evenodd;stroke:#000000;stroke-width:0.61515868;stroke-linecap:butt;stroke-linejoin:miter;stroke-miterlimit:4;stroke-dasharray:none;stroke-opacity:1" />
          <path
             id="path5335"
             d="m -130.77217,228.52125 -3.88975,2.02943 0.16912,12.8531 1.01471,12.8531 1.6912,1.6912 7.77951,0.33823 6.08831,-0.67647 0.67648,-1.6912 0.50735,-10.48542 2.02944,-9.63983 -0.50736,-5.07359 -5.07359,-1.52208 z"
             style="fill:#e40909;fill-opacity:1;fill-rule:evenodd;stroke:#000000;stroke-width:0.28222224px;stroke-linecap:butt;stroke-linejoin:miter;stroke-opacity:1" />
          <path
             id="path5343"
             d="m -132.04601,231.4044 c 0.13714,2.13631 -0.70629,4.20517 -0.39873,6.31916 0.48686,1.92756 1.45052,3.79568 1.16651,5.84199 -0.0663,1.94676 -0.52035,3.85512 -0.42969,5.81302 -0.19946,1.60611 -0.42147,3.26729 0.26508,4.80432 0.0721,1.81775 1.86721,2.67583 3.48336,2.14769 2.51087,-0.102 5.02826,-0.15878 7.53737,-0.19031 -0.64989,1.59691 -3.32189,0.96849 -4.88591,1.17744 -1.84888,0.0592 -3.69563,0.0874 -5.5397,0.20118 -1.71474,0.0875 -2.12641,-1.87922 -2.49331,-3.16745 -0.71116,-2.06202 0.20541,-4.22071 -0.019,-6.33483 0.32714,-2.55839 0.80279,-5.26712 -0.26067,-7.72674 -0.55083,-1.41584 -0.8954,-2.94014 -0.39401,-4.42874 0.38399,-1.68996 -0.36739,-4.05675 1.96872,-4.45673 l 0,0 z"
             style="opacity:0.81199999;fill:#c40202;fill-opacity:1;stroke:none;stroke-width:0.70866144;stroke-linecap:round;stroke-linejoin:round;stroke-miterlimit:4;stroke-dasharray:none;stroke-opacity:1;filter:url(#filter5240)" />
          <path
             id="path5345"
             d="m -120.44993,230.27613 c 1.19792,0.24861 2.41662,0.38609 3.62848,0.53069 0.63615,0.0246 1.10538,0.3882 1.39177,0.92296 0.53417,0.43258 0.15757,1.01479 -0.0591,1.49353 -0.17947,0.61301 -0.56679,1.16599 -0.55944,1.82712 -0.0297,0.52091 0.0344,1.04273 -0.004,1.56217 -0.0386,0.22674 -0.33105,0.24056 -0.49415,0.36224 -0.39957,0.20359 -0.79915,0.40717 -1.19872,0.61076 0.0289,-0.75801 -0.0891,-1.52614 0.0583,-2.27459 0.13719,-0.58552 0.45586,-1.10203 0.61192,-1.68307 0.45782,-0.4665 0.0486,-0.93608 -0.30305,-1.29412 -0.29551,-0.49458 -0.97643,-0.34915 -1.4557,-0.49328 -1.05769,-0.12753 -2.10707,-0.31336 -3.1612,-0.4659 0.5149,-0.3661 1.02941,-0.73278 1.54456,-1.09851 z"
             style="opacity:0.89600004;fill:#e44c4c;fill-opacity:1;stroke:none;stroke-width:0.70866144;stroke-linecap:round;stroke-linejoin:round;stroke-miterlimit:4;stroke-dasharray:none;stroke-opacity:1;filter:url(#filter5298)" />
          <g
             id="g5374"
             transform="matrix(0.91354546,0.45165263,-0.36628745,0.91354546,65.295981,143.49402)">
            <path
               id="path5352"
               transform="matrix(0.99426214,0,0,0.89540636,-349.54217,-23.416341)"
               d="m 200.33398,229.60742 c -1.19655,0.0765 -2.35398,0.40958 -3.25976,1.00781 -2.77978,2.45082 0.76678,4.56288 3.8164,4.01954 1.35325,0.01 2.91395,-0.38984 3.89649,-1.125 l 27.82422,0.47851 0,-2.60937 c -1.882,-0.23525 -22.89656,-0.44601 -27.44336,-0.49024 -1.25682,-0.95373 -3.08502,-1.39306 -4.83399,-1.28125 z"
               style="fill:#666666;fill-opacity:1;fill-rule:evenodd;stroke:#000000;stroke-width:0.6448819;stroke-linecap:butt;stroke-linejoin:miter;stroke-miterlimit:4;stroke-dasharray:none;stroke-opacity:1" />
            <g
               transform="matrix(0,0.90057372,-1.1104033,0,79.558565,280.77287)"
               id="g5347">
              <path
                 id="path5337"
                 d="m -112.08314,159.23613 -0.67648,23.50765 c 0,0 8.68148,1.80394 12.51486,0.16911 l -1.52208,-23.84588 c -3.82373,-2.73883 -6.90238,-2.46012 -10.3163,0.16912 z"
                 style="fill:#91a19c;fill-opacity:1;fill-rule:evenodd;stroke:#000000;stroke-width:0.60847217;stroke-linecap:butt;stroke-linejoin:miter;stroke-miterlimit:4;stroke-dasharray:none;stroke-opacity:1" />
              <path
                 id="path5339"
                 d="m -108.57216,159.62568 c 1.35967,6.63502 2.7805,13.90011 -0.16913,20.32686 -3.20248,1.97397 -0.49817,-3.64091 -1.84917,-5.11663 -0.3651,-2.80913 -2.62303,-8.25965 1.22447,-9.19944 0.98535,2.65986 -0.14546,6.54396 1.38371,9.54802 1.19886,1.70405 -0.91604,6.22312 -2.52092,4.80014 2.24382,-5.97196 1.01224,-12.46467 -0.0794,-18.54794 0.14624,-0.99117 1.09789,-1.62439 2.01042,-1.81101 z"
                 style="opacity:0.81199999;fill:#7d8c87;fill-opacity:1;stroke:none;stroke-width:0.20000002;stroke-linecap:round;stroke-linejoin:round;stroke-miterlimit:4;stroke-dasharray:none;stroke-opacity:1;filter:url(#filter5214)" />
              <path
                 id="path5341"
                 d="m -103.98462,159.90634 c 1.50048,2.10875 1.99585,4.76258 1.84689,7.30407 0.35399,1.89089 -1.01791,3.62939 -0.41557,5.4558 0.0542,2.11297 0.26018,4.20333 0.57132,6.2849 -0.12571,1.28847 -3.04125,2.42811 -2.33892,0.24828 -0.19166,-1.70419 -0.41798,-3.40645 -0.39754,-5.10957 -0.86536,-1.75107 0.43887,-3.3434 0.34257,-5.10543 -0.0415,-2.272 0.11587,-4.67051 -1.10657,-6.70563 -1.3394,-1.48643 0.61908,-1.64715 1.49782,-2.37242 z"
                 style="opacity:0.81199999;fill:#a8adab;fill-opacity:1;stroke:none;stroke-width:0.70866144;stroke-linecap:round;stroke-linejoin:round;stroke-miterlimit:4;stroke-dasharray:none;stroke-opacity:1;filter:url(#filter5210)" />
            </g>
            <path
               style="fill:#f90000;fill-opacity:1;fill-rule:evenodd;stroke:#000000;stroke-width:0.46771654;stroke-linecap:butt;stroke-linejoin:miter;stroke-miterlimit:4;stroke-dasharray:none;stroke-opacity:1"
               d="m 200.33398,229.60742 c -1.19655,0.0765 -2.35398,0.40958 -3.25976,1.00781 -2.77978,2.45082 0.76678,4.56288 3.8164,4.01954 1.35325,0.01 2.91395,-0.38984 3.89649,-1.125 -0.78943,-0.71339 -2.45229,0.057 -3.14114,-0.0166 -6.16094,-0.65797 -2.67863,-0.0892 1.51812,-1.5837 -9.04484,-0.63319 3.89778,-2.03778 -0.64902,-2.08198 -1.25682,-0.95373 -0.43212,-0.3319 -2.18109,-0.22009 z"
               transform="matrix(0.99426214,0,0,0.89540636,-349.54217,-23.416341)"
               id="path5372" />
          </g>
        </g>
      </g>
    </g>
  </g>
</svg>
